<svg width="62" height="44" viewBox="0 0 62 44" fill="none" xmlns="http://www.w3.org/2000/svg">
    <path d="M19.6371 30.4345H18.1247V31.9469V37.2962C17.8799 37.2135 17.6153 37.1197 17.3338 37.0137C15.7229 36.4078 13.5817 35.4153 11.4488 33.8725C7.222 30.8149 3 25.5913 3 16.7172C3 9.14137 9.14141 3 16.7172 3H28.607C36.1828 3 42.3241 9.14137 42.3241 16.7172C42.3241 24.2931 36.1828 30.4345 28.607 30.4345H19.6371Z"
          stroke="#81E6D9" stroke-width="4.06197"/>
    <mask id="mask0_13_75" style="mask-type:luminance" maskUnits="userSpaceOnUse" x="29" y="13" width="33" height="31">
        <path fill-rule="evenodd" clip-rule="evenodd"
              d="M29.4446 29.9403C31.1473 34.616 35.6318 37.9547 40.8962 37.9547H45.3497V43.8366C45.3497 43.8366 61.9868 40.8957 61.9868 25.7711C61.9868 19.0421 56.5319 13.5872 49.803 13.5872H40.8962C40.8397 13.5872 40.7832 13.5877 40.727 13.5885C40.7829 14.1195 40.8117 14.6588 40.8117 15.2047C40.8117 22.2814 35.9852 28.2306 29.4446 29.9403Z"
              fill="white"/>
    </mask>
    <g mask="url(#mask0_13_75)">
        <path d="M29.4446 29.9403L28.6796 27.0137L25.4655 27.8539L26.6022 30.9755L29.4446 29.9403ZM45.3497 37.9547H48.3746V34.9298H45.3497V37.9547ZM45.3497 43.8366H42.3248V47.443L45.8762 46.8154L45.3497 43.8366ZM40.727 13.5885L40.6857 10.5637L37.371 10.6089L37.7187 13.9058L40.727 13.5885ZM26.6022 30.9755C28.726 36.8074 34.32 40.9797 40.8962 40.9797V34.9298C36.9436 34.9298 33.5685 32.4244 32.2868 28.9052L26.6022 30.9755ZM40.8962 40.9797H45.3497V34.9298H40.8962V40.9797ZM42.3248 37.9547V43.8366H48.3746V37.9547H42.3248ZM45.3497 43.8366C45.8762 46.8154 45.8775 46.8151 45.8789 46.8148C45.8795 46.8148 45.881 46.8145 45.8821 46.8143C45.8844 46.8139 45.8868 46.8134 45.8895 46.813C45.8951 46.8119 45.9016 46.8108 45.909 46.8093C45.9241 46.8066 45.9432 46.8031 45.966 46.7986C46.012 46.7898 46.0736 46.7777 46.1498 46.762C46.3022 46.7304 46.5134 46.6842 46.7752 46.6209C47.2979 46.4946 48.0263 46.2992 48.8926 46.0148C50.6149 45.4493 52.9368 44.5146 55.283 43.0335C60.0218 40.0418 65.0118 34.681 65.0118 25.7711H58.9619C58.9619 31.9856 55.6331 35.6578 52.0534 37.9177C50.2403 39.0623 48.4029 39.808 47.0057 40.2667C46.3122 40.4943 45.741 40.6468 45.3538 40.7404C45.1606 40.7871 45.0144 40.8189 44.9232 40.8378C44.8775 40.8472 44.8456 40.8534 44.8287 40.8567C44.8202 40.8584 44.8153 40.8591 44.8143 40.8594C44.8138 40.8594 44.8143 40.8594 44.8158 40.8591C44.8166 40.859 44.8175 40.8588 44.8187 40.8585C44.8193 40.8585 44.8203 40.8582 44.8206 40.8582C44.8218 40.8581 44.8231 40.8578 45.3497 43.8366ZM65.0118 25.7711C65.0118 17.3714 58.2025 10.5623 49.803 10.5623V16.6122C54.8613 16.6122 58.9619 20.7128 58.9619 25.7711H65.0118ZM49.803 10.5623H40.8962V16.6122H49.803V10.5623ZM40.8962 10.5623C40.8261 10.5623 40.7559 10.5628 40.6857 10.5637L40.7681 16.6131C40.8108 16.6125 40.8534 16.6122 40.8962 16.6122V10.5623ZM37.7187 13.9058C37.7636 14.3317 37.7868 14.765 37.7868 15.2047H43.8366C43.8366 14.5527 43.8023 13.9074 43.7351 13.271L37.7187 13.9058ZM37.7868 15.2047C37.7868 20.8716 33.922 25.6434 28.6796 27.0137L30.2096 32.867C38.0486 30.8179 43.8366 23.691 43.8366 15.2047H37.7868Z"
              fill="#81E6D9"/>
    </g>
</svg>
